#!OML:ASF H:\ManfredObstacles\Project 1\Capture day 2\Session 1\male.ASF
:FULLY-SPECIFIED
:DEGREES
366
root 2.50515 8.5609 -1.52858 -170.208 0.20238 171.026
lowerback 43.77 2.74991 0.123825
upperback 19.5412 -5.55731 0.479387
thorax 1.51087 -5.99435 2.23852
lowerneck -38.8818 1.33585 -3.28974
upperneck 24.2642 3.08511 2.07015
head 14.6059 1.30154 2.09319
rclavicle -1.30204e-014 4.70995e-014
rhumerus 51.0066 6.85325 -81.045
rradius 21.9316
rwrist 44.6152
rhand -13.6018 -13.6518
rfingers 7.12502
rthumb 12.513 -43.2571
lclavicle -1.30204e-014 4.70995e-014
lhumerus 39.9978 11.168 75.3699
lradius 22.588
lwrist -49.7044
lhand -6.03769 7.31153
lfingers 7.12502
lthumb 19.7961 36.3234
rfemur -82.801 2.46279 30.8105
rtibia 141.818
rfoot -29.1066 -33.4384
rtoes -30.6117
lfemur -89.9314 7.1852 -28.7099
ltibia 135.702
lfoot -15.7592 24.0485
ltoes -8.76091
367
root 2.50606 8.49936 -1.61376 -170.341 0.334179 171.06
lowerback 43.7241 2.79413 0.0436432
upperback 19.5419 -5.54404 0.437597
thorax 1.52126 -5.99661 2.22786
lowerneck -38.9363 1.42992 -3.02882
upperneck 24.2769 3.09079 2.00751
head 14.6268 1.31967 2.02798
rclavicle 2.71093e-014 7.92033e-015
rhumerus 50.8156 6.95073 -81.9051
rradius 21.4321
rwrist 45.4949
rhand -14.1662 -14.0912
rfingers 7.12502
rthumb 11.9688 -43.729
lclavicle 2.71093e-014 7.92033e-015
lhumerus 40.7532 11.964 76.2398
lradius 21.9387
lwrist -50.7742
lhand -6.00658 7.18217
lfingers 7.12502
lthumb 19.826 36.191
rfemur -82.4239 2.68921 31.247
rtibia 142.49
rfoot -29.0818 -33.9828
rtoes -30.5382
lfemur -90.1155 8.07341 -28.7466
ltibia 136.808
lfoot -15.8194 23.431
ltoes -8.33529
368
root 2.5084 8.4419 -1.69951 -170.452 0.453784 171.058
lowerback 43.6829 2.84362 -0.0787206
upperback 19.5375 -5.53763 0.387012
thorax 1.52559 -6.00345 2.23234
lowerneck -38.9028 1.52745 -2.76946
upperneck 24.2672 3.09514 1.95714
head 14.6222 1.33999 1.96595
rclavicle 4.24592e-014 -2.59631e-014
rhumerus 50.5129 7.14771 -82.5918
rradius 21.067
rwrist 46.2694
rhand -14.7671 -14.5604
rfingers 7.12502
rthumb 11.3893 -44.2311
lclavicle 4.24592e-014 -2.59631e-014
lhumerus 41.497 12.8171 77.2119
lradius 21.3235
lwrist -51.8601
lhand -5.9686 7.08826
lfingers 7.12502
lthumb 19.8625 36.0933
rfemur -82.0405 2.7655 31.6799
rtibia 143.127
rfoot -29.198 -34.4507
rtoes -30.5901
lfemur -90.3194 9.02181 -28.8081
ltibia 137.868
lfoot -15.8344 22.7239
ltoes -8.00288
369
root 2.51207 8.38954 -1.78582 -170.537 0.551126 171.021
lowerback 43.6474 2.89596 -0.235112
upperback 19.5323 -5.53966 0.330991
thorax 1.52871 -6.01575 2.25144
lowerneck -38.8293 1.62946 -2.49539
upperneck 24.2448 3.09919 1.8989
head 14.6054 1.36078 1.8973
rclavicle -2.045e-014 4.03781e-015
rhumerus 50.1084 7.41312 -83.1381
rradius 20.8339
rwrist 46.9017
rhand -15.395 -15.0189
rfingers 7.12502
rthumb 10.7838 -44.7221
lclavicle -2.045e-014 4.03781e-015
lhumerus 42.2595 13.7196 78.2858
lradius 20.7222
lwrist -53.0109
lhand -5.91351 7.04791
lfingers 7.12502
lthumb 19.9155 36.0474
rfemur -81.6316 2.61912 32.0961
rtibia 143.718
rfoot -29.5145 -34.7861
rtoes -30.7565
lfemur -90.5287 10.0132 -28.8739
ltibia 138.86
lfoot -15.8463 21.9217
ltoes -7.70675
370
root 2.51681 8.34312 -1.87313 -170.582 0.63327 170.959
lowerback 43.5981 2.95173 -0.412012
upperback 19.5355 -5.54547 0.270281
thorax 1.54554 -6.03072 2.27547
lowerneck -38.7779 1.72999 -2.2038
upperneck 24.2237 3.10097 1.81409
head 14.5942 1.37783 1.81459
rclavicle -9.74045e-015 -2.23633e-016
rhumerus 49.6502 7.72143 -83.5398
rradius 20.7144
rwrist 47.3271
rhand -16.0185 -15.4443
rfingers 7.12502
rthumb 10.1823 -45.1779
lclavicle -9.74045e-015 -2.23633e-016
lhumerus 43.0692 14.6883 79.4966
lradius 20.1215
lwrist -54.3926
lhand -5.87139 7.05022
lfingers 7.12502
lthumb 19.956 36.0455
rfemur -81.199 2.25302 32.4806
rtibia 144.25
rfoot -29.955 -34.9957
rtoes -30.9802
lfemur -90.7526 11.0427 -28.9313
ltibia 139.769
lfoot -15.8581 21.0282
ltoes -7.52587
371
root 2.52218 8.303 -1.96187 -170.573 0.720607 170.88
lowerback 43.5158 3.01129 -0.611203
upperback 19.5488 -5.55428 0.201436
thorax 1.58265 -6.04768 2.30023
lowerneck -38.7873 1.82887 -1.90516
upperneck 24.2228 3.10661 1.70351
head 14.6032 1.39228 1.72221
rclavicle -6.80837e-015 -1.08089e-015
rhumerus 49.1567 8.0754 -83.8199
rradius 20.6988
rwrist 47.476
rhand -16.6651 -15.8176
rfingers 7.12502
rthumb 9.55845 -45.5807
lclavicle -6.80837e-015 -1.08089e-015
lhumerus 43.927 15.7253 80.8458
lradius 19.5364
lwrist -55.9119
lhand -5.81295 7.11946
lfingers 7.12502
lthumb 20.0122 36.1089
rfemur -80.7571 1.71522 32.8145
rtibia 144.72
rfoot -30.4706 -35.0754
rtoes -30.8478
lfemur -90.9904 12.1478 -28.9823
ltibia 140.589
lfoot -15.891 20.0544
ltoes -7.41178
